# xmcd
# 
# Track frame offsets:
#     150
#     18450
#     36005
#     54325
# 
# Disc length: 956
# 
# Revision: 5
# Processed by: cddbd v1.5.2PL0 Copyright (c) Steve Scherf et al.
# Submitted via: fre:ac v1.1beta1pre2
# 
DISCID=2703ba04
DTITLE=浜崎直子 - Round11
DYEAR=1997
DGENRE=Anime
TTITLE0=Round11
TTITLE1=奇跡の向こう側へ
TTITLE2=Round11 (off-vocal version)
TTITLE3=奇跡の向こう側へ (off-vocal version)
EXTD=
EXTT0=
EXTT1=
EXTT2=
EXTT3=
PLAYORDER=
